<svg width="83" height="204" viewBox="0 0 83 204" fill="none" xmlns="http://www.w3.org/2000/svg">
<path d="M41.3701 200.822L41.3701 3.10923" stroke="#CCCCCC" stroke-width="5" stroke-linecap="round"/>
<path fill-rule="evenodd" clip-rule="evenodd" d="M0.634737 42.3134L0.628906 42.3114L41.3704 27.9531L82.112 42.3114L82.1061 42.3134V153.097L82.112 153.099L41.3704 167.457L0.628906 153.099L0.634737 153.097V42.3134ZM80.7426 42.794V152.616L41.3704 138.741L1.99828 152.616V42.794L41.3704 56.6696L80.7426 42.794ZM4.73118 42.3114L41.3704 29.3989L78.0097 42.3114L41.3704 55.2239L4.73118 42.3114ZM4.73118 153.099L41.3704 140.186L78.0097 153.099L41.3704 166.011L4.73118 153.099Z" fill="white"/>
<g opacity="0.8">
<path fill-rule="evenodd" clip-rule="evenodd" d="M0.634737 42.3134L0.628906 42.3114L41.3704 27.9531L82.112 42.3114L82.1061 42.3134V153.097L82.112 153.099L41.3704 167.457L0.628906 153.099L0.634737 153.097V42.3134ZM80.7426 42.794V152.616L41.3704 138.741L1.99828 152.616V42.794L41.3704 56.6696L80.7426 42.794ZM4.73118 42.3114L41.3704 29.3989L78.0097 42.3114L41.3704 55.2239L4.73118 42.3114ZM4.73118 153.099L41.3704 140.186L78.0097 153.099L41.3704 166.011L4.73118 153.099Z" fill="url(#paint0_linear_207_1191)" fill-opacity="0.9"/>
<path d="M41.3704 29.3989L4.73118 42.3114L41.3704 55.2239L78.0097 42.3114L41.3704 29.3989Z" fill="url(#paint1_linear_207_1191)" fill-opacity="0.9"/>
<path d="M80.7426 152.616V42.794L41.3704 56.6696L1.99828 42.794V152.616L41.3704 138.741L80.7426 152.616Z" fill="url(#paint2_linear_207_1191)" fill-opacity="0.9"/>
<path d="M41.3704 140.186L4.73118 153.099L41.3704 166.011L78.0097 153.099L41.3704 140.186Z" fill="url(#paint3_linear_207_1191)" fill-opacity="0.9"/>
</g>
<defs>
<linearGradient id="paint0_linear_207_1191" x1="41.3704" y1="27.9531" x2="41.3704" y2="167.457" gradientUnits="userSpaceOnUse">
<stop offset="0.025" stop-color="#FF2300"/>
<stop offset="0.465" stop-color="#FF4527"/>
<stop offset="1" stop-color="#FFB149"/>
</linearGradient>
<linearGradient id="paint1_linear_207_1191" x1="41.3704" y1="27.9531" x2="41.3704" y2="167.457" gradientUnits="userSpaceOnUse">
<stop offset="0.025" stop-color="#FF2300"/>
<stop offset="0.465" stop-color="#FF4527"/>
<stop offset="1" stop-color="#FFB149"/>
</linearGradient>
<linearGradient id="paint2_linear_207_1191" x1="41.3704" y1="27.9531" x2="41.3704" y2="167.457" gradientUnits="userSpaceOnUse">
<stop offset="0.025" stop-color="#FF2300"/>
<stop offset="0.465" stop-color="#FF4527"/>
<stop offset="1" stop-color="#FFB149"/>
</linearGradient>
<linearGradient id="paint3_linear_207_1191" x1="41.3704" y1="27.9531" x2="41.3704" y2="167.457" gradientUnits="userSpaceOnUse">
<stop offset="0.025" stop-color="#FF2300"/>
<stop offset="0.465" stop-color="#FF4527"/>
<stop offset="1" stop-color="#FFB149"/>
</linearGradient>
</defs>
</svg>
