<svg width="114" height="312" viewBox="0 0 114 312" fill="none" xmlns="http://www.w3.org/2000/svg">
<line x1="2.5" y1="-2.5" x2="308.515" y2="-2.5" transform="matrix(0 -1 -1 0 54.9365 311.015)" stroke="#CBD2D1" stroke-width="5" stroke-linecap="round"/>
<path d="M0.856692 61.0978L0.848633 61.0947L57.159 39.6807L113.469 61.0947L113.461 61.0978V226.322L113.469 226.325L57.159 247.739L0.848633 226.325L0.856692 226.322V61.0978ZM111.577 61.8145V225.605L57.159 204.91L2.74129 225.605V61.8145L57.159 82.5088L111.577 61.8145ZM6.51854 61.0947L57.159 41.8369L107.799 61.0947L57.159 80.3526L6.51854 61.0947ZM6.51854 226.325L57.159 207.067L107.799 226.325L57.159 245.582L6.51854 226.325Z" fill="white"/>
<path d="M0.856692 61.0978L0.848633 61.0947L57.159 39.6807L113.469 61.0947L113.461 61.0978V226.322L113.469 226.325L57.159 247.739L0.848633 226.325L0.856692 226.322V61.0978ZM111.577 61.8145V225.605L57.159 204.91L2.74129 225.605V61.8145L57.159 82.5088L111.577 61.8145ZM6.51854 61.0947L57.159 41.8369L107.799 61.0947L57.159 80.3526L6.51854 61.0947ZM6.51854 226.325L57.159 207.067L107.799 226.325L57.159 245.582L6.51854 226.325Z" stroke="#CBD2D1"/>
<g opacity="0.8">
<path d="M0.856692 61.0978L0.848633 61.0947L57.159 39.6807L113.469 61.0947L113.461 61.0978V226.322L113.469 226.325L57.159 247.739L0.848633 226.325L0.856692 226.322V61.0978Z" fill="url(#paint0_linear_207_1199)"/>
<path d="M0.856692 61.0978L0.848633 61.0947L57.159 39.6807L113.469 61.0947L113.461 61.0978V226.322L113.469 226.325L57.159 247.739L0.848633 226.325L0.856692 226.322V61.0978Z" stroke="#CBD2D1"/>
</g>
<defs>
<linearGradient id="paint0_linear_207_1199" x1="57.159" y1="39.6807" x2="57.159" y2="247.739" gradientUnits="userSpaceOnUse">
<stop stop-color="#00A980"/>
<stop offset="1" stop-color="#94FAE1"/>
</linearGradient>
</defs>
</svg>
